<svg width="300" height="156" viewBox="0 0 300 156" fill="none" xmlns="http://www.w3.org/2000/svg">
<g clip-path="url(#clip0_39_341)">
<g clip-path="url(#clip1_39_341)">
<g clip-path="url(#clip2_39_341)">
<g clip-path="url(#clip3_39_341)">
<g clip-path="url(#clip4_39_341)">
<g clip-path="url(#clip5_39_341)">
<g clip-path="url(#clip6_39_341)">
<g clip-path="url(#clip7_39_341)">
<path d="M42.4681 25.5145L41.9772 13.0468C38.6394 11.7372 35.1386 11.0833 31.4729 11.0833C24.0767 11.0833 18.1079 13.7987 13.5665 19.2315C9.01137 24.6643 6.7338 32.6162 6.7338 43.0871C6.7338 53.558 9.12328 60.8895 13.9003 65.0774C17.1733 68.0226 21.7206 69.4951 27.5461 69.4951C31.2766 69.4951 35.0267 69.0691 38.7965 68.2189C42.5525 67.3687 45.1187 66.55 46.4931 65.7646L47.8675 70.575C44.9871 72.4736 39.949 73.7813 32.7491 74.5019C30.6542 74.763 28.4492 74.8945 26.1324 74.8945C23.8018 74.8945 21.0668 74.5156 17.9253 73.7557C14.7838 73.0096 11.8721 71.4919 9.18808 69.2006C3.10147 64.0309 0.0581665 55.4233 0.0581665 43.3816C0.0581665 31.34 2.92476 22.0255 8.65795 15.4421C14.3774 8.87056 21.8188 5.58576 30.9821 5.58576C36.087 5.58576 40.4713 6.60085 44.137 8.62906C45.5114 9.34964 46.5913 10.135 47.3766 10.9852V25.22L42.4681 25.5145ZM59.7462 25.4163L66.1273 24.9255V74.5019H59.7462V25.4163ZM62.6913 12.2614C61.3817 12.2614 60.3882 11.8353 59.7069 10.9852C59.0138 10.135 58.6663 9.05512 58.6663 7.74552C58.6663 6.43592 59.0452 5.36978 59.8051 4.54514C60.5512 3.73425 61.5781 3.32782 62.8877 3.32782C64.1973 3.32782 65.2634 3.73425 66.088 4.54514C66.8989 5.36978 67.3054 6.50267 67.3054 7.94186C67.3054 9.38105 66.8675 10.4609 65.9899 11.1815C65.1004 11.9021 64.0009 12.2614 62.6913 12.2614ZM81.1475 35.4298L79.3804 30.7176C86.5135 27.1834 92.7651 25.3181 98.1311 25.1218C102.386 25.1218 105.677 25.6578 108.007 26.7318C110.324 27.8176 112.203 29.3235 113.642 31.2477C115.081 33.1856 115.802 35.8872 115.802 39.3566V74.5019H109.421V70.7713C100.454 73.5201 94.6951 74.8945 92.1426 74.8945C92.0111 74.8945 91.9129 74.8945 91.8481 74.8945C85.9579 74.8945 81.9328 73.0941 79.7731 69.4951C78.9877 68.1855 78.5499 66.9093 78.4576 65.6665C78.3535 64.4236 78.3005 63.3751 78.3005 62.525C78.3005 60.1689 79.2174 58.0543 81.0493 56.1831C82.8812 54.3238 85.0743 53.0672 87.6268 52.4134C91.9463 51.3001 99.211 50.3184 109.421 49.4682V41.5164C109.421 34.3833 105.69 30.8157 98.2293 30.8157C92.9928 30.8157 87.2989 32.3531 81.1475 35.4298ZM84.289 63.3103C84.289 68.0226 87.5286 70.3787 94.0079 70.3787C99.1776 70.3787 104.316 69.2654 109.421 67.0409V53.0024C99.211 54.4416 92.8946 55.5548 90.4737 56.3402C86.3505 57.6498 84.289 59.9725 84.289 63.3103ZM124.735 61.936C123.557 58.7945 122.968 55.1288 122.968 50.9408C122.968 42.8908 125.226 36.5548 129.742 31.9349C134.258 27.3267 139.919 25.0236 146.726 25.0236C157.393 25.0236 164.397 29.3432 167.734 37.9822C168.977 41.1237 169.6 44.7894 169.6 48.9774C169.6 57.0274 167.342 63.3555 162.826 67.9637C158.31 72.5836 152.649 74.8945 145.842 74.8945C135.175 74.8945 128.138 70.575 124.735 61.936ZM129.349 50.2536C129.349 56.2754 130.901 60.9346 134.003 64.2332C137.119 67.5455 141.13 69.2006 146.039 69.2006C150.947 69.2006 155.037 67.4473 158.31 63.9386C161.583 60.4438 163.219 55.6864 163.219 49.6646C163.219 43.6428 161.681 38.9777 158.604 35.6654C155.528 32.3668 151.522 30.7176 146.588 30.7176C141.641 30.7176 137.531 32.465 134.258 35.9599C130.985 39.4685 129.349 44.2318 129.349 50.2536Z" fill="#574F4D"/>
<path d="M8.20633 151.959H1.5307V83.2391H15.7655C23.8155 83.2391 29.641 84.5153 33.24 87.0677C37.4279 90.0129 39.5229 95.053 39.5229 102.186C39.5229 114.098 34.9422 121.363 25.779 123.98C22.8338 124.83 19.496 125.256 15.7655 125.256H8.20633V151.959ZM15.2747 88.6385H8.20633V119.857H15.2747C21.1649 119.857 25.5689 118.567 28.4885 115.989C31.3943 113.397 32.8473 109.17 32.8473 103.305C32.8473 97.4542 31.3943 93.547 28.4885 91.5836C25.5689 89.6202 21.1649 88.6385 15.2747 88.6385ZM49.929 102.873L56.3102 102.382V151.959H49.929V102.873ZM52.8742 89.7184C51.5646 89.7184 50.5711 89.2923 49.8898 88.4421C49.1967 87.592 48.8492 86.5121 48.8492 85.2025C48.8492 83.8929 49.2281 82.8267 49.9879 82.0021C50.734 81.1912 51.7609 80.7848 53.0705 80.7848C54.3801 80.7848 55.4463 81.1912 56.2709 82.0021C57.0818 82.8267 57.4882 83.9596 57.4882 85.3988C57.4882 86.838 57.0504 87.9179 56.1727 88.6385C55.2833 89.3591 54.1838 89.7184 52.8742 89.7184ZM67.5017 108.567L67.4035 102.873H103.236L104.119 108.567L73.4901 146.265H105.396L106.181 151.959H65.8328L64.9492 146.265L95.9713 108.567H67.5017ZM115.9 108.567L115.802 102.873H151.634L152.518 108.567L121.888 146.265H153.794L154.579 151.959H114.231L113.348 146.265L144.37 108.567H115.9ZM163.906 112.887L162.139 108.175C169.272 104.64 175.523 102.775 180.889 102.579C185.144 102.579 188.429 103.115 190.746 104.189C193.076 105.275 194.961 106.78 196.4 108.705C197.839 110.643 198.56 113.344 198.56 116.814V151.959H192.179V148.228C183.212 150.977 177.453 152.352 174.901 152.352C174.769 152.352 174.671 152.352 174.606 152.352C168.716 152.352 164.691 150.551 162.531 146.952C161.746 145.642 161.3 144.366 161.196 143.123C161.104 141.881 161.059 140.832 161.059 139.982C161.059 137.626 161.976 135.511 163.807 133.64C165.639 131.781 167.833 130.524 170.385 129.87C174.704 128.757 181.969 127.775 192.179 126.925V118.973C192.179 111.84 188.448 108.273 180.987 108.273C175.751 108.273 170.057 109.81 163.906 112.887ZM167.047 140.767C167.047 145.48 170.287 147.836 176.766 147.836C181.936 147.836 187.074 146.722 192.179 144.498V130.459C181.969 131.899 175.653 133.012 173.232 133.797C169.109 135.107 167.047 137.43 167.047 140.767ZM236.552 103.855L234 109.745C232.953 109.156 231.84 108.862 230.662 108.862C229.484 108.862 228.83 108.895 228.699 108.96C226.211 108.96 223.711 109.857 221.198 111.65C218.671 113.456 216.525 115.473 214.758 117.697V151.959H208.377V102.873L214.758 102.382V113.378C217.179 110.301 219.241 108.141 220.943 106.898C224.085 104.542 227.094 103.299 229.975 103.168C230.367 103.103 231.088 103.07 232.135 103.07C233.181 103.07 234.654 103.331 236.552 103.855ZM243.522 102.873L249.904 102.382V151.959H243.522V102.873ZM246.468 89.7184C245.158 89.7184 244.157 89.2923 243.464 88.4421C242.782 87.592 242.443 86.5121 242.443 85.2025C242.443 83.8929 242.816 82.8267 243.562 82.0021C244.322 81.1912 245.354 80.7848 246.664 80.7848C247.973 80.7848 249.034 81.1912 249.845 82.0021C250.669 82.8267 251.082 83.9596 251.082 85.3988C251.082 86.838 250.636 87.9179 249.746 88.6385C248.869 89.3591 247.777 89.7184 246.468 89.7184ZM264.924 112.887L263.157 108.175C270.29 104.64 276.541 102.775 281.907 102.579C286.162 102.579 289.447 103.115 291.764 104.189C294.094 105.275 295.979 106.78 297.418 108.705C298.858 110.643 299.578 113.344 299.578 116.814V151.959H293.197V148.228C284.23 150.977 278.471 152.352 275.919 152.352C275.787 152.352 275.689 152.352 275.624 152.352C269.734 152.352 265.709 150.551 263.549 146.952C262.764 145.642 262.318 144.366 262.214 143.123C262.122 141.881 262.077 140.832 262.077 139.982C262.077 137.626 262.994 135.511 264.826 133.64C266.657 131.781 268.851 130.524 271.403 129.87C275.723 128.757 282.987 127.775 293.197 126.925V118.973C293.197 111.84 289.466 108.273 282.005 108.273C276.769 108.273 271.075 109.81 264.924 112.887ZM268.065 140.767C268.065 145.48 271.305 147.836 277.784 147.836C282.954 147.836 288.092 146.722 293.197 144.498V130.459C282.987 131.899 276.671 133.012 274.25 133.797C270.127 135.107 268.065 137.43 268.065 140.767Z" fill="#574F4D"/>
</g>
</g>
</g>
</g>
</g>
</g>
</g>
</g>
<defs>
<clipPath id="clip0_39_341">
<rect width="300" height="156" fill="white"/>
</clipPath>
<clipPath id="clip1_39_341">
<rect width="300" height="156" fill="white" transform="translate(-0.181824 -0.160309)"/>
</clipPath>
<clipPath id="clip2_39_341">
<rect width="299.52" height="155.679" fill="white" transform="translate(0.0581665)"/>
</clipPath>
<clipPath id="clip3_39_341">
<rect width="299.52" height="155.679" fill="white" transform="translate(0.0581665)"/>
</clipPath>
<clipPath id="clip4_39_341">
<rect width="299.52" height="155.679" fill="white" transform="translate(0.0581665)"/>
</clipPath>
<clipPath id="clip5_39_341">
<rect width="299.52" height="155.679" fill="white" transform="translate(0.0581665)"/>
</clipPath>
<clipPath id="clip6_39_341">
<rect width="299.52" height="155.679" fill="white" transform="translate(0.0581665)"/>
</clipPath>
<clipPath id="clip7_39_341">
<rect width="299.52" height="155.679" fill="white" transform="translate(0.0581665)"/>
</clipPath>
</defs>
</svg>
