<svg xmlns="http://www.w3.org/2000/svg" version="1.1" xmlns:xlink="http://www.w3.org/1999/xlink" xmlns:svgjs="http://svgjs.dev/svgjs" width="1500" height="780" viewBox="0 0 1500 780"><g transform="matrix(1,0,0,1,-0.9090909090909918,-0.8015810276680213)"><svg viewBox="0 0 396 206" data-background-color="#e8772e" preserveAspectRatio="xMidYMid meet" height="780" width="1500" xmlns="http://www.w3.org/2000/svg" xmlns:xlink="http://www.w3.org/1999/xlink"><g id="tight-bounds" transform="matrix(1,0,0,1,0.2400000000000091,0.2116996047430888)"><svg viewBox="0 0 395.52 205.57660079051382" height="205.57660079051382" width="395.52"><g><svg viewBox="0 0 395.52 205.57660079051382" height="205.57660079051382" width="395.52"><g><svg viewBox="0 0 395.52 205.57660079051382" height="205.57660079051382" width="395.52"><g id="textblocktransform"><svg viewBox="0 0 395.52 205.57660079051382" height="205.57660079051382" width="395.52" id="textblock"><g><svg viewBox="0 0 395.52 205.57660079051382" height="205.57660079051382" width="395.52"><g transform="matrix(1,0,0,1,0,0)"><svg width="395.52" viewBox="3.2499999999999973 -36.25 152.55 75.9" height="205.57660079051382" data-palette-color="#ffffff"><svg></svg><svg></svg><g class="wordmark-text-0" data-fill-palette-color="primary" id="text-0"><path d="M24.85-24.95l-0.25-6.35c-1.7-0.667-3.483-1-5.35-1v0c-3.767 0-6.807 1.383-9.12 4.15-2.32 2.767-3.48 6.817-3.48 12.15 0 5.333 1.217 9.067 3.65 11.2v0c1.667 1.5 3.983 2.25 6.95 2.25v0c1.9 0 3.81-0.217 5.73-0.65 1.913-0.433 3.22-0.85 3.92-1.25v0l0.7 2.45c-1.467 0.967-4.033 1.633-7.7 2v0c-1.067 0.133-2.19 0.2-3.37 0.2-1.187 0-2.58-0.193-4.18-0.58-1.6-0.38-3.083-1.153-4.45-2.32v0c-3.1-2.633-4.65-7.017-4.65-13.15 0-6.133 1.46-10.877 4.38-14.23 2.913-3.347 6.703-5.02 11.37-5.02v0c2.6 0 4.833 0.517 6.7 1.55v0c0.7 0.367 1.25 0.767 1.65 1.2v0 7.25zM33.65-25l3.25-0.25v25.25h-3.25zM35.15-31.7c-0.667 0-1.173-0.217-1.52-0.65-0.353-0.433-0.53-0.983-0.53-1.65 0-0.667 0.193-1.21 0.58-1.63 0.38-0.413 0.903-0.62 1.57-0.62 0.667 0 1.21 0.207 1.63 0.62 0.413 0.42 0.62 0.997 0.62 1.73 0 0.733-0.223 1.283-0.67 1.65-0.453 0.367-1.013 0.55-1.68 0.55zM44.55-19.9l-0.9-2.4c3.633-1.8 6.817-2.75 9.55-2.85v0c2.167 0 3.843 0.273 5.03 0.82 1.18 0.553 2.137 1.32 2.87 2.3 0.733 0.987 1.1 2.363 1.1 4.13v0 17.9h-3.25v-1.9c-4.567 1.4-7.5 2.1-8.8 2.1v0c-0.067 0-0.117 0-0.15 0v0c-3 0-5.05-0.917-6.15-2.75v0c-0.4-0.667-0.623-1.317-0.67-1.95-0.053-0.633-0.08-1.167-0.08-1.6v0c0-1.2 0.467-2.277 1.4-3.23 0.933-0.947 2.05-1.587 3.35-1.92v0c2.2-0.567 5.9-1.067 11.1-1.5v0-4.05c0-3.633-1.9-5.45-5.7-5.45v0c-2.667 0-5.567 0.783-8.7 2.35zM46.15-5.7v0c0 2.4 1.65 3.6 4.95 3.6v0c2.633 0 5.25-0.567 7.85-1.7v0-7.15c-5.2 0.733-8.417 1.3-9.65 1.7v0c-2.1 0.667-3.15 1.85-3.15 3.55zM66.75-6.4v0c-0.6-1.6-0.9-3.467-0.9-5.6v0c0-4.1 1.15-7.327 3.45-9.68 2.3-2.347 5.183-3.52 8.65-3.52v0c5.433 0 9 2.2 10.7 6.6v0c0.633 1.6 0.95 3.467 0.95 5.6v0c0 4.1-1.15 7.323-3.45 9.67-2.3 2.353-5.183 3.53-8.65 3.53v0c-5.433 0-9.017-2.2-10.75-6.6zM69.1-12.35c0 3.067 0.79 5.44 2.37 7.12 1.587 1.687 3.63 2.53 6.13 2.53 2.5 0 4.583-0.893 6.25-2.68 1.667-1.78 2.5-4.203 2.5-7.27 0-3.067-0.783-5.443-2.35-7.13-1.567-1.68-3.607-2.52-6.12-2.52-2.52 0-4.613 0.89-6.28 2.67-1.667 1.787-2.5 4.213-2.5 7.28z" fill="#ffffff" fill-rule="nonzero" stroke="none" stroke-width="1" stroke-linecap="butt" stroke-linejoin="miter" stroke-miterlimit="10" stroke-dasharray="" stroke-dashoffset="0" font-family="none" font-weight="none" font-size="none" text-anchor="none" style="mix-blend-mode: normal" data-fill-palette-color="primary" opacity="1"></path><path d="M7.4 39.45h-3.4v-35h7.25c4.1 0 7.067 0.65 8.9 1.95v0c2.133 1.5 3.2 4.067 3.2 7.7v0c0 6.067-2.333 9.767-7 11.1v0c-1.5 0.433-3.2 0.65-5.1 0.65v0h-3.85zM11 7.2h-3.6v15.9h3.6c3 0 5.243-0.657 6.73-1.97 1.48-1.32 2.22-3.473 2.22-6.46 0-2.98-0.74-4.97-2.22-5.97-1.487-1-3.73-1.5-6.73-1.5zM28.65 14.45l3.25-0.25v25.25h-3.25zM30.15 7.75c-0.667 0-1.173-0.217-1.52-0.65-0.353-0.433-0.53-0.983-0.53-1.65 0-0.667 0.193-1.21 0.58-1.63 0.38-0.413 0.903-0.62 1.57-0.62 0.667 0 1.21 0.207 1.63 0.62 0.413 0.42 0.62 0.997 0.62 1.73 0 0.733-0.223 1.283-0.67 1.65-0.453 0.367-1.013 0.55-1.68 0.55zM37.6 17.35l-0.05-2.9h18.25l0.45 2.9-15.6 19.2h16.25l0.4 2.9h-20.55l-0.45-2.9 15.8-19.2zM62.25 17.35l-0.05-2.9h18.25l0.45 2.9-15.6 19.2h16.25l0.4 2.9h-20.55l-0.45-2.9 15.8-19.2zM86.7 19.55l-0.9-2.4c3.633-1.8 6.817-2.75 9.55-2.85v0c2.167 0 3.84 0.273 5.02 0.82 1.187 0.553 2.147 1.32 2.88 2.3 0.733 0.987 1.1 2.363 1.1 4.13v0 17.9h-3.25v-1.9c-4.567 1.4-7.5 2.1-8.8 2.1v0c-0.067 0-0.117 0-0.15 0v0c-3 0-5.05-0.917-6.15-2.75v0c-0.4-0.667-0.627-1.317-0.68-1.95-0.047-0.633-0.07-1.167-0.07-1.6v0c0-1.2 0.467-2.277 1.4-3.23 0.933-0.947 2.05-1.587 3.35-1.92v0c2.2-0.567 5.9-1.067 11.1-1.5v0-4.05c0-3.633-1.9-5.45-5.7-5.45v0c-2.667 0-5.567 0.783-8.7 2.35zM88.3 33.75v0c0 2.4 1.65 3.6 4.95 3.6v0c2.633 0 5.25-0.567 7.85-1.7v0-7.15c-5.2 0.733-8.417 1.3-9.65 1.7v0c-2.1 0.667-3.15 1.85-3.15 3.55zM123.7 14.95l-1.3 3c-0.533-0.3-1.1-0.45-1.7-0.45-0.6 0-0.933 0.017-1 0.05v0c-1.267 0-2.54 0.457-3.82 1.37-1.287 0.92-2.38 1.947-3.28 3.08v0 17.45h-3.25v-25l3.25-0.25v5.6c1.233-1.567 2.283-2.667 3.15-3.3v0c1.6-1.2 3.133-1.833 4.6-1.9v0c0.2-0.033 0.567-0.05 1.1-0.05 0.533 0 1.283 0.133 2.25 0.4zM127.25 14.45l3.25-0.25v25.25h-3.25zM128.75 7.75c-0.667 0-1.177-0.217-1.53-0.65-0.347-0.433-0.52-0.983-0.52-1.65 0-0.667 0.19-1.21 0.57-1.63 0.387-0.413 0.913-0.62 1.58-0.62 0.667 0 1.207 0.207 1.62 0.62 0.42 0.42 0.63 0.997 0.63 1.73 0 0.733-0.227 1.283-0.68 1.65-0.447 0.367-1.003 0.55-1.67 0.55zM138.15 19.55l-0.9-2.4c3.633-1.8 6.817-2.75 9.55-2.85v0c2.167 0 3.84 0.273 5.02 0.82 1.187 0.553 2.147 1.32 2.88 2.3 0.733 0.987 1.1 2.363 1.1 4.13v0 17.9h-3.25v-1.9c-4.567 1.4-7.5 2.1-8.8 2.1v0c-0.067 0-0.117 0-0.15 0v0c-3 0-5.05-0.917-6.15-2.75v0c-0.4-0.667-0.627-1.317-0.68-1.95-0.047-0.633-0.07-1.167-0.07-1.6v0c0-1.2 0.467-2.277 1.4-3.23 0.933-0.947 2.05-1.587 3.35-1.92v0c2.2-0.567 5.9-1.067 11.1-1.5v0-4.05c0-3.633-1.9-5.45-5.7-5.45v0c-2.667 0-5.567 0.783-8.7 2.35zM139.75 33.75v0c0 2.4 1.65 3.6 4.95 3.6v0c2.633 0 5.25-0.567 7.85-1.7v0-7.15c-5.2 0.733-8.417 1.3-9.65 1.7v0c-2.1 0.667-3.15 1.85-3.15 3.55z" fill="#ffffff" fill-rule="nonzero" stroke="none" stroke-width="1" stroke-linecap="butt" stroke-linejoin="miter" stroke-miterlimit="10" stroke-dasharray="" stroke-dashoffset="0" font-family="none" font-weight="none" font-size="none" text-anchor="none" style="mix-blend-mode: normal" data-fill-palette-color="primary" opacity="1"></path></g></svg></g></svg></g></svg></g></svg></g></svg></g><defs></defs></svg><rect width="395.52" height="205.57660079051382" fill="none" stroke="none" visibility="hidden"></rect></g></svg></g></svg>